<svg width="27" height="27" viewBox="0 0 27 27" fill="none" xmlns="http://www.w3.org/2000/svg">
<path d="M13.5 0C6.05604 0 0 6.05604 0 13.5C0 20.944 6.05604 27 13.5 27C20.944 27 27 20.944 27 13.5C27 6.05604 20.944 0 13.5 0ZM13.5 25.8511C6.68968 25.8511 1.14894 20.3103 1.14894 13.5C1.14894 6.68968 6.68968 1.14894 13.5 1.14894C20.3103 1.14894 25.8511 6.68968 25.8511 13.5C25.8511 20.3103 20.3103 25.8511 13.5 25.8511ZM12.287 13.4779H12.4841C13.5721 13.4779 14.4542 12.5958 14.4542 11.5075V9.9067C14.4542 8.81866 13.5721 7.93656 12.4841 7.93656H12.287C11.199 7.93656 10.3166 8.81866 10.3166 9.9067V11.5075C10.3166 12.5958 11.199 13.4779 12.287 13.4779ZM15.0456 14.9192H9.72546C8.63741 14.9192 7.75532 15.8013 7.75532 16.8894V17.9501C8.95596 19.1071 10.5872 19.8191 12.3855 19.8191C14.1839 19.8191 15.8148 19.1071 17.0157 17.9504V16.8896C17.0157 15.8016 16.1334 14.9192 15.0456 14.9192ZM19.3199 7.18085H18.4798V9.40318H16.2574V10.2436H18.4798V12.466H19.3199V10.2436H21.5426V9.40318H19.3199V7.18085Z" fill="black"/>
</svg>
